<svg id="visual" viewBox="0 0 900 600" width="900" height="600" xmlns="http://www.w3.org/2000/svg" xmlns:xlink="http://www.w3.org/1999/xlink" version="1.1"><path d="M0 67L75 61C150 55 300 43 450 48C600 53 750 75 825 86L900 97L900 0L825 0C750 0 600 0 450 0C300 0 150 0 75 0L0 0Z" fill="#ffffff"></path><path d="M0 169L75 179C150 189 300 209 450 213C600 217 750 205 825 199L900 193L900 95L825 84C750 73 600 51 450 46C300 41 150 53 75 59L0 65Z" fill="#dddddd"></path><path d="M0 283L75 287C150 291 300 299 450 295C600 291 750 275 825 267L900 259L900 191L825 197C750 203 600 215 450 211C300 207 150 187 75 177L0 167Z" fill="#bcbcbc"></path><path d="M0 331L75 339C150 347 300 363 450 357C600 351 750 323 825 309L900 295L900 257L825 265C750 273 600 289 450 293C300 297 150 289 75 285L0 281Z" fill="#bcbcbc"></path><path d="M0 373L75 385C150 397 300 421 450 428C600 435 750 425 825 420L900 415L900 293L825 307C750 321 600 349 450 355C300 361 150 345 75 337L0 329Z" fill="#dddddd"></path><path d="M0 601L75 601C150 601 300 601 450 601C600 601 750 601 825 601L900 601L900 413L825 418C750 423 600 433 450 426C300 419 150 395 75 383L0 371Z" fill="#ffffff"></path></svg>